<?xml version="1.0" encoding="UTF-8"?>
<svg id="Layer_1" data-name="Layer 1" xmlns="http://www.w3.org/2000/svg" viewBox="0 0 1757.12 1766.01">
  <defs>
    <style>
      .cls-1 {
        fill: #b0b5c1;
        stroke-width: 0px;
      }

      .cls-2 {
        opacity: .1;
      }
    </style>
  </defs>
  <g class="cls-2">
    <g>
      <path class="cls-1" d="M1738.79,464.44h-20.25l14.79-28.93h23.79l-18.33,28.93Z"/>
      <path class="cls-1" d="M1738.79,584.37h-20.25l14.79-28.93h23.79l-18.33,28.93Z"/>
      <path class="cls-1" d="M1738.79,704.3h-20.25l14.79-28.93h23.79l-18.33,28.93Z"/>
      <path class="cls-1" d="M1738.79,824.23h-20.25l14.79-28.93h23.79l-18.33,28.93Z"/>
      <path class="cls-1" d="M1738.79,944.16h-20.25l14.79-28.93h23.79l-18.33,28.93Z"/>
      <path class="cls-1" d="M1738.79,1064.09h-20.25l14.79-28.93h23.79l-18.33,28.93Z"/>
      <path class="cls-1" d="M1738.79,1184.02h-20.25l14.79-28.93h23.79l-18.33,28.93Z"/>
      <path class="cls-1" d="M1738.79,1303.95h-20.25l14.79-28.93h23.79l-18.33,28.93Z"/>
      <path class="cls-1" d="M1738.79,1423.88h-20.25l14.79-28.93h23.79l-18.33,28.93Z"/>
    </g>
    <g>
      <path class="cls-1" d="M1631.38,464.44h-20.25l14.79-28.93h23.79l-18.33,28.93Z"/>
      <path class="cls-1" d="M1631.42,584.97h-21.09l15.4-30.12h24.76l-19.07,30.12Z"/>
      <path class="cls-1" d="M1631.46,705.49h-21.92l16.01-31.32h25.75l-19.84,31.32Z"/>
      <path class="cls-1" d="M1631.5,826.02h-22.76l16.62-32.51h26.73l-20.59,32.51Z"/>
      <path class="cls-1" d="M1631.54,946.55h-23.59l17.23-33.71h27.71l-21.35,33.71Z"/>
      <path class="cls-1" d="M1631.5,1065.88h-22.76l16.62-32.51h26.73l-20.59,32.51Z"/>
      <path class="cls-1" d="M1631.46,1185.22h-21.92l16.01-31.32h25.75l-19.84,31.32Z"/>
      <path class="cls-1" d="M1631.42,1304.55h-21.09l15.4-30.12h24.76l-19.07,30.12Z"/>
      <path class="cls-1" d="M1631.38,1423.88h-20.25l14.79-28.93h23.79l-18.33,28.93Z"/>
    </g>
    <g>
      <path class="cls-1" d="M1523.97,464.44h-20.25l14.79-28.93h23.79l-18.33,28.93Z"/>
      <path class="cls-1" d="M1524.05,585.56h-21.92l16.01-31.32h25.75l-19.84,31.32Z"/>
      <path class="cls-1" d="M1524.13,706.69h-23.59l17.23-33.71h27.71l-21.35,33.71Z"/>
      <path class="cls-1" d="M1524.21,827.81h-25.27l18.45-36.09h29.68l-22.86,36.09Z"/>
      <path class="cls-1" d="M1524.29,948.94h-26.94l19.67-38.48h31.64l-24.37,38.48Z"/>
      <path class="cls-1" d="M1524.21,1067.67h-25.27l18.45-36.09h29.68l-22.86,36.09Z"/>
      <path class="cls-1" d="M1524.13,1186.41h-23.59l17.23-33.71h27.71l-21.35,33.71Z"/>
      <path class="cls-1" d="M1524.05,1305.15h-21.92l16.01-31.32h25.75l-19.84,31.32Z"/>
      <path class="cls-1" d="M1523.97,1423.88h-20.25l14.79-28.93h23.79l-18.33,28.93Z"/>
    </g>
    <g>
      <path class="cls-1" d="M1416.56,464.44h-20.25l14.79-28.93h23.79l-18.33,28.93Z"/>
      <path class="cls-1" d="M1416.68,586.16h-22.76l16.62-32.51h26.73l-20.59,32.51Z"/>
      <path class="cls-1" d="M1416.8,707.88h-25.27l18.45-36.09h29.68l-22.86,36.09Z"/>
      <path class="cls-1" d="M1416.92,829.6h-27.77l20.28-39.68h32.62l-25.13,39.68Z"/>
      <path class="cls-1" d="M1417.04,951.33h-30.28l22.11-43.26h35.57l-27.4,43.26Z"/>
      <path class="cls-1" d="M1416.92,1069.47h-27.77l20.28-39.68h32.62l-25.13,39.68Z"/>
      <path class="cls-1" d="M1416.8,1187.6h-25.27l18.45-36.09h29.68l-22.86,36.09Z"/>
      <path class="cls-1" d="M1416.68,1305.74h-22.76l16.62-32.51h26.73l-20.59,32.51Z"/>
      <path class="cls-1" d="M1416.56,1423.88h-20.25l14.79-28.93h23.79l-18.33,28.93Z"/>
    </g>
    <g>
      <path class="cls-1" d="M1309.15,464.44h-20.25l14.79-28.93h23.79l-18.33,28.93Z"/>
      <path class="cls-1" d="M1309.31,586.76h-23.59l17.23-33.71h27.71l-21.35,33.71Z"/>
      <path class="cls-1" d="M1309.47,709.08h-26.94l19.67-38.48h31.64l-24.37,38.48Z"/>
      <path class="cls-1" d="M1309.63,831.4h-30.28l22.11-43.26h35.57l-27.4,43.26Z"/>
      <path class="cls-1" d="M1309.79,953.72h-33.63l24.55-48.04h39.5l-30.42,48.04Z"/>
      <path class="cls-1" d="M1309.63,1071.26h-30.28l22.11-43.26h35.57l-27.4,43.26Z"/>
      <path class="cls-1" d="M1309.47,1188.8h-26.94l19.67-38.48h31.64l-24.37,38.48Z"/>
      <path class="cls-1" d="M1309.31,1306.34h-23.59l17.23-33.71h27.71l-21.35,33.71Z"/>
      <path class="cls-1" d="M1309.15,1423.88h-20.25l14.79-28.93h23.79l-18.33,28.93Z"/>
    </g>
    <g>
      <path class="cls-1" d="M1201.74,464.44h-20.25l14.79-28.93h23.79l-18.33,28.93Z"/>
      <path class="cls-1" d="M1201.94,587.35h-24.43l17.84-34.9h28.7l-22.11,34.9Z"/>
      <path class="cls-1" d="M1202.14,710.27h-28.61l20.89-40.87h33.61l-25.89,40.87Z"/>
      <path class="cls-1" d="M1202.34,833.19h-32.79l23.94-46.84h38.52l-29.67,46.84Z"/>
      <path class="cls-1" d="M1202.54,956.1h-36.97l26.99-52.82h43.43l-33.45,52.82Z"/>
      <path class="cls-1" d="M1202.34,1073.05h-32.79l23.94-46.84h38.52l-29.67,46.84Z"/>
      <path class="cls-1" d="M1202.14,1189.99h-28.61l20.89-40.87h33.61l-25.89,40.87Z"/>
      <path class="cls-1" d="M1201.94,1306.94h-24.43l17.84-34.9h28.7l-22.11,34.9Z"/>
      <path class="cls-1" d="M1201.74,1423.88h-20.25l14.79-28.93h23.79l-18.33,28.93Z"/>
    </g>
    <g>
      <path class="cls-1" d="M1094.34,464.44h-20.25l14.79-28.93h23.79l-18.33,28.93Z"/>
      <path class="cls-1" d="M1094.57,587.95h-25.27l18.45-36.09h29.68l-22.86,36.09Z"/>
      <path class="cls-1" d="M1094.81,711.47h-30.28l22.11-43.26h35.57l-27.4,43.26Z"/>
      <path class="cls-1" d="M1095.05,834.98h-35.3l25.77-50.43h41.46l-31.93,50.43Z"/>
      <path class="cls-1" d="M1095.29,958.49h-40.31l29.44-57.59h47.35l-36.48,57.59Z"/>
      <path class="cls-1" d="M1095.05,1074.84h-35.3l25.77-50.43h41.46l-31.93,50.43Z"/>
      <path class="cls-1" d="M1094.81,1191.19h-30.28l22.11-43.26h35.57l-27.4,43.26Z"/>
      <path class="cls-1" d="M1094.57,1307.53h-25.27l18.45-36.09h29.68l-22.86,36.09Z"/>
      <path class="cls-1" d="M1094.34,1423.88h-20.25l14.79-28.93h23.79l-18.33,28.93Z"/>
    </g>
    <g>
      <path class="cls-1" d="M986.93,464.44h-20.25l14.79-28.93h23.79l-18.33,28.93Z"/>
      <path class="cls-1" d="M987.21,588.55h-26.1l19.06-37.29h30.66l-23.62,37.29Z"/>
      <path class="cls-1" d="M987.48,712.66h-31.95l23.33-45.65h37.53l-28.91,45.65Z"/>
      <path class="cls-1" d="M987.76,836.77h-37.81l27.6-54.01h44.41l-34.2,54.01Z"/>
      <path class="cls-1" d="M988.04,960.88h-43.66l31.88-62.37h51.28l-39.5,62.37Z"/>
      <path class="cls-1" d="M987.76,1076.63h-37.81l27.6-54.01h44.41l-34.2,54.01Z"/>
      <path class="cls-1" d="M987.48,1192.38h-31.95l23.33-45.65h37.53l-28.91,45.65Z"/>
      <path class="cls-1" d="M987.21,1308.13h-26.1l19.06-37.29h30.66l-23.62,37.29Z"/>
      <path class="cls-1" d="M986.93,1423.88h-20.25l14.79-28.93h23.79l-18.33,28.93Z"/>
    </g>
    <g>
      <path class="cls-1" d="M879.52,464.44h-20.25l14.79-28.93h23.79l-18.33,28.93Z"/>
      <path class="cls-1" d="M879.84,589.15h-26.94l19.67-38.48h31.64l-24.37,38.48Z"/>
      <path class="cls-1" d="M880.16,713.85h-33.63l24.55-48.04h39.5l-30.42,48.04Z"/>
      <path class="cls-1" d="M880.47,838.56h-40.31l29.44-57.59h47.35l-36.48,57.59Z"/>
      <path class="cls-1" d="M880.79,963.27h-47l34.32-67.15h55.21l-42.53,67.15Z"/>
      <path class="cls-1" d="M880.47,1078.42h-40.31l29.44-57.59h47.35l-36.48,57.59Z"/>
      <path class="cls-1" d="M880.16,1193.58h-33.63l24.55-48.04h39.5l-30.42,48.04Z"/>
      <path class="cls-1" d="M879.84,1308.73h-26.94l19.67-38.48h31.64l-24.37,38.48Z"/>
      <path class="cls-1" d="M879.52,1423.88h-20.25l14.79-28.93h23.79l-18.33,28.93Z"/>
    </g>
    <g>
      <path class="cls-1" d="M772.11,464.44h-20.25l14.79-28.93h23.79l-18.33,28.93Z"/>
      <path class="cls-1" d="M772.39,588.55h-26.1l19.06-37.29h30.66l-23.62,37.29Z"/>
      <path class="cls-1" d="M772.67,712.66h-31.95l23.33-45.65h37.53l-28.91,45.65Z"/>
      <path class="cls-1" d="M772.95,836.77h-37.81l27.6-54.01h44.41l-34.2,54.01Z"/>
      <path class="cls-1" d="M773.22,960.88h-43.66l31.88-62.37h51.28l-39.5,62.37Z"/>
      <path class="cls-1" d="M772.95,1076.63h-37.81l27.6-54.01h44.41l-34.2,54.01Z"/>
      <path class="cls-1" d="M772.67,1192.38h-31.95l23.33-45.65h37.53l-28.91,45.65Z"/>
      <path class="cls-1" d="M772.39,1308.13h-26.1l19.06-37.29h30.66l-23.62,37.29Z"/>
      <path class="cls-1" d="M772.11,1423.88h-20.25l14.79-28.93h23.79l-18.33,28.93Z"/>
    </g>
    <g>
      <path class="cls-1" d="M664.7,464.44h-20.25l14.79-28.93h23.79l-18.33,28.93Z"/>
      <path class="cls-1" d="M664.94,587.95h-25.27l18.45-36.09h29.68l-22.86,36.09Z"/>
      <path class="cls-1" d="M665.18,711.47h-30.28l22.11-43.26h35.57l-27.4,43.26Z"/>
      <path class="cls-1" d="M665.42,834.98h-35.3l25.77-50.43h41.46l-31.93,50.43Z"/>
      <path class="cls-1" d="M665.66,958.49h-40.31l29.44-57.59h47.35l-36.48,57.59Z"/>
      <path class="cls-1" d="M665.42,1074.84h-35.3l25.77-50.43h41.46l-31.93,50.43Z"/>
      <path class="cls-1" d="M665.18,1191.19h-30.28l22.11-43.26h35.57l-27.4,43.26Z"/>
      <path class="cls-1" d="M664.94,1307.53h-25.27l18.45-36.09h29.68l-22.86,36.09Z"/>
      <path class="cls-1" d="M664.7,1423.88h-20.25l14.79-28.93h23.79l-18.33,28.93Z"/>
    </g>
    <g>
      <path class="cls-1" d="M557.29,464.44h-20.25l14.79-28.93h23.79l-18.33,28.93Z"/>
      <path class="cls-1" d="M557.49,587.35h-24.43l17.84-34.9h28.7l-22.11,34.9Z"/>
      <path class="cls-1" d="M557.69,710.27h-28.61l20.89-40.87h33.61l-25.89,40.87Z"/>
      <path class="cls-1" d="M557.89,833.19h-32.79l23.94-46.84h38.52l-29.67,46.84Z"/>
      <path class="cls-1" d="M558.09,956.1h-36.97l26.99-52.82h43.43l-33.45,52.82Z"/>
      <path class="cls-1" d="M557.89,1073.05h-32.79l23.94-46.84h38.52l-29.67,46.84Z"/>
      <path class="cls-1" d="M557.69,1189.99h-28.61l20.89-40.87h33.61l-25.89,40.87Z"/>
      <path class="cls-1" d="M557.49,1306.94h-24.43l17.84-34.9h28.7l-22.11,34.9Z"/>
      <path class="cls-1" d="M557.29,1423.88h-20.25l14.79-28.93h23.79l-18.33,28.93Z"/>
    </g>
    <g>
      <path class="cls-1" d="M449.88,464.44h-20.25l14.79-28.93h23.79l-18.33,28.93Z"/>
      <path class="cls-1" d="M450.04,586.76h-23.59l17.23-33.71h27.71l-21.35,33.71Z"/>
      <path class="cls-1" d="M450.2,709.08h-26.94l19.67-38.48h31.64l-24.37,38.48Z"/>
      <path class="cls-1" d="M450.36,831.4h-30.28l22.11-43.26h35.57l-27.4,43.26Z"/>
      <path class="cls-1" d="M450.52,953.72h-33.63l24.55-48.04h39.5l-30.42,48.04Z"/>
      <path class="cls-1" d="M450.36,1071.26h-30.28l22.11-43.26h35.57l-27.4,43.26Z"/>
      <path class="cls-1" d="M450.2,1188.8h-26.94l19.67-38.48h31.64l-24.37,38.48Z"/>
      <path class="cls-1" d="M450.04,1306.34h-23.59l17.23-33.71h27.71l-21.35,33.71Z"/>
      <path class="cls-1" d="M449.88,1423.88h-20.25l14.79-28.93h23.79l-18.33,28.93Z"/>
    </g>
    <g>
      <path class="cls-1" d="M342.48,464.44h-20.25l14.79-28.93h23.79l-18.33,28.93Z"/>
      <path class="cls-1" d="M342.6,586.16h-22.76l16.62-32.51h26.73l-20.59,32.51Z"/>
      <path class="cls-1" d="M342.71,707.88h-25.27l18.45-36.09h29.68l-22.86,36.09Z"/>
      <path class="cls-1" d="M342.83,829.6h-27.77l20.28-39.68h32.62l-25.13,39.68Z"/>
      <path class="cls-1" d="M342.95,951.33h-30.28l22.11-43.26h35.57l-27.4,43.26Z"/>
      <path class="cls-1" d="M342.83,1069.47h-27.77l20.28-39.68h32.62l-25.13,39.68Z"/>
      <path class="cls-1" d="M342.71,1187.6h-25.27l18.45-36.09h29.68l-22.86,36.09Z"/>
      <path class="cls-1" d="M342.6,1305.74h-22.76l16.62-32.51h26.73l-20.59,32.51Z"/>
      <path class="cls-1" d="M342.48,1423.88h-20.25l14.79-28.93h23.79l-18.33,28.93Z"/>
    </g>
    <g>
      <path class="cls-1" d="M235.07,464.44h-20.25l14.79-28.93h23.79l-18.33,28.93Z"/>
      <path class="cls-1" d="M235.15,585.56h-21.92l16.01-31.32h25.75l-19.84,31.32Z"/>
      <path class="cls-1" d="M235.23,706.69h-23.59l17.23-33.71h27.71l-21.35,33.71Z"/>
      <path class="cls-1" d="M235.31,827.81h-25.27l18.45-36.09h29.68l-22.86,36.09Z"/>
      <path class="cls-1" d="M235.39,948.94h-26.94l19.67-38.48h31.64l-24.37,38.48Z"/>
      <path class="cls-1" d="M235.31,1067.67h-25.27l18.45-36.09h29.68l-22.86,36.09Z"/>
      <path class="cls-1" d="M235.23,1186.41h-23.59l17.23-33.71h27.71l-21.35,33.71Z"/>
      <path class="cls-1" d="M235.15,1305.15h-21.92l16.01-31.32h25.75l-19.84,31.32Z"/>
      <path class="cls-1" d="M235.07,1423.88h-20.25l14.79-28.93h23.79l-18.33,28.93Z"/>
    </g>
    <g>
      <path class="cls-1" d="M127.66,464.44h-20.25l14.79-28.93h23.79l-18.33,28.93Z"/>
      <path class="cls-1" d="M127.7,584.97h-21.09l15.4-30.12h24.77l-19.08,30.12Z"/>
      <path class="cls-1" d="M127.74,705.49h-21.92l16.01-31.32h25.75l-19.84,31.32Z"/>
      <path class="cls-1" d="M127.78,826.02h-22.76l16.62-32.51h26.73l-20.59,32.51Z"/>
      <path class="cls-1" d="M127.82,946.55h-23.59l17.23-33.71h27.71l-21.35,33.71Z"/>
      <path class="cls-1" d="M127.78,1065.88h-22.76l16.62-32.51h26.73l-20.59,32.51Z"/>
      <path class="cls-1" d="M127.74,1185.22h-21.92l16.01-31.32h25.75l-19.84,31.32Z"/>
      <path class="cls-1" d="M127.7,1304.55h-21.09l15.4-30.12h24.77l-19.08,30.12Z"/>
      <path class="cls-1" d="M127.66,1423.88h-20.25l14.79-28.93h23.79l-18.33,28.93Z"/>
    </g>
    <g>
      <path class="cls-1" d="M20.25,464.44H0l14.79-28.93h23.79l-18.33,28.93Z"/>
      <path class="cls-1" d="M20.25,584.37H0l14.79-28.93h23.79l-18.33,28.93Z"/>
      <path class="cls-1" d="M20.25,704.3H0l14.79-28.93h23.79l-18.33,28.93Z"/>
      <path class="cls-1" d="M20.25,824.23H0l14.79-28.93h23.79l-18.33,28.93Z"/>
      <path class="cls-1" d="M20.25,944.16H0l14.79-28.93h23.79l-18.33,28.93Z"/>
      <path class="cls-1" d="M20.25,1064.09H0l14.79-28.93h23.79l-18.33,28.93Z"/>
      <path class="cls-1" d="M20.25,1184.02H0l14.79-28.93h23.79l-18.33,28.93Z"/>
      <path class="cls-1" d="M20.25,1303.95H0l14.79-28.93h23.79l-18.33,28.93Z"/>
      <path class="cls-1" d="M20.25,1423.88H0l14.79-28.93h23.79l-18.33,28.93Z"/>
    </g>
  </g>
</svg>